<svg xmlns="http://www.w3.org/2000/svg" width="1243" height="1313" fill="none"><path fill="#EADB68" d="M609 24v1h4l-4-1Z"/><path fill="#4E6B77" d="M614 24v1h3l-3-1Z"/><path fill="#0D5634" d="M617 24.424c-72.93 9.604-142.819 19.59-212 46.387C232.281 137.714 85.723 283.58 39.895 466c-8.4 33.441-15.344 68.482-16.856 103-1.05 24.007 1.535 47.957.946 72-2.252 91.928.015 184.074.015 276 0 91.29-1.245 182.97.985 274 .563 22.97.015 46.02.015 69 0 6.06-3.299 19.54.858 24.35 4.1 4.74 14.546 3.65 20.142 3.65h52c71.294 0 142.711-2 214-2 66.357 0 132.707-1.89 199-2 139.411-.22 278.679 2 418 2 57.05 0 114.97-1.46 172 1.04 24.3 1.06 48.63.96 73 .96 13.04 0 27.14 1.51 40-.76 12.32-2.17 9-15.49 9-25.24v-79c0-112.4 1-224.697 1-337 0-67.342-.22-134.718-1-202-.53-45.72 1.76-89.637-6.42-135C1179.12 301.314 1023.97 139.726 830 66.575c-48.927-18.452-100.205-30.11-152-36.857-19.165-2.496-41.771-7.826-61-5.294Z"/><path fill="#4E6B77" d="M630 24v1h3l-3-1Z"/><path fill="#EADB68" d="M634 24v1h4l-4-1Zm-38 1v1h7l-7-1Z"/><path fill="#4E6B77" d="M605 25v1h3l-3-1Zm34 0v1h3l-3-1Z"/><path fill="#EADB68" d="M644 25v1h7l-7-1Zm-58 1v1h4l-4-1Z"/><path fill="#4FA9D5" d="M590 26v1h3l-3-1Z"/><path fill="#4E6B77" d="M593 26v1h4l-4-1Zm57 0v1h4l-4-1Z"/><path fill="#4FA9D5" d="M654 26v1h3l-3-1Z"/><path fill="#EADB68" d="M657 26v1h5l-5-1Zm-80 1v1h4l-4-1Z"/><path fill="#4E6B77" d="M583 27v1h6l-6-1Zm75 0v1h7l-7-1Z"/><path fill="#EADB68" d="M667 27v1h5l-5-1Zm-98 1v1h3l-3-1Z"/><path fill="#4E6B77" d="M574 28v1h6l-6-1Zm94 0v1h6l-6-1Z"/><path fill="#EADB68" d="M561 29v1h3l-3-1Z"/><path fill="#4E6B77" d="M566 29v1h5l-5-1Zm110 0v1h5l-5-1Z"/><path fill="#EADB68" d="M683 29v1h3l-3-1Zm-129 1v1h4l-4-1Z"/><path fill="#4E6B77" d="M559 30v1h4l-4-1Zm125 0v1h4l-4-1Z"/><path fill="#EADB68" d="M690 30v1h3l-3-1Zm-142 1v1h3l-3-1Z"/><path fill="#4E6B77" d="M553 31v1h3l-3-1Zm138 0v1h3l-3-1Z"/><path fill="#EADB68" d="M696 31v1h3l-3-1Z"/><path fill="#4E6B77" d="M546 32v1h3l-3-1Z"/><path fill="#EADB68" d="M702 32v1h3l-3-1Z"/><path fill="#4E6B77" d="M622 35v1h3l-3-1Zm94 0v1h3l-3-1ZM523 36v1h3l-3-1Zm92 0v1h6l-6-1Z"/><path fill="#4FA9D5" d="M32 832c15.733-5.013 31.55-20.061 45-29.576 30.542-21.608 61.655-43.587 95-60.682 20.315-10.414 42.666-19.322 66-16.456 46.932 5.764 86.942 43.29 120.83 73.2 10.199 9.002 20.603 18.549 29.684 28.688 2.761 3.082 7.707 10.379 12.486 9.65 5.379-.82 11.919-8.513 16-11.905 12.472-10.367 24.726-20.996 37.17-31.394 34.365-28.714 66.454-59.888 99.83-89.691 15.162-13.539 30.735-29.036 48-39.834v-1c-21.938 2.339-47.965-4.698-70-6.83-8.422-.815-18.779.662-23-8.17 26.229 0 54.825 3 82 3 5.732 0 25.938-.751 25 3 17.851-9.393 34.414-12.179 54-6.279 7.112 2.143 14.782 7.523 22 8.481 15.228 2.022 31.526.828 47 1.887 22.188 1.52 44.752 3.908 67 3.911-.104 5.05.086 18.873-4.434 21.972-4.358 2.989-15.561-.096-20.566-.686-16.925-1.997-34.035-3.142-51-5.286v1c40.48 27.309 87.953 66.578 140 60-11.954-19.784-21.541-41.216-19.911-65 4.038-58.902 59.131-107.898 118.911-97.385 32.01 5.63 59.25 24.902 75.14 53.385 4.95 8.874 5.95 25.421 12.37 32.402 8.01 8.705 21.62 15.091 31.49 21.595 25.7 16.94 54.62 28.909 84 37.723 13.4 4.02 28.96 8.989 43 9.28 0-44.883 4.97-91.31 1.91-136-7.46-108.859-39.86-212.264-102.95-302C1029.45 172.787 898.32 91.457 757 56.126c-42.263-10.565-90.244-21.051-134-19.867C450.746 40.922 277.826 121.936 165.282 252 82.06 348.178 38.711 468.095 30.09 594c-2.042 29.818 1.379 61.089 1.735 91 .582 48.949.175 98.012.175 147Z"/><path fill="#4E6B77" d="M626 36v1h6l-6-1Zm95 0v1h3l-3-1Z"/><path fill="#EADB68" d="M514 37v1h3l-3-1Z"/><path fill="#4E6B77" d="M518 37v1h3l-3-1Zm85 0v1h11l-11-1Zm31 0v1h10l-10-1Zm92 0v1h3l-3-1ZM513 38v1h3l-3-1Zm78 0v1h6l-6-1Zm59 0v1h6l-6-1Zm80 0v1h4l-4-1ZM581 39v1h7l-7-1Zm79 0v1h6l-6-1Zm75 0v1h3l-3-1Z"/><path fill="#EADB68" d="M739 39v1h3l-3-1Z"/><path fill="#4E6B77" d="M572 40v1h6l-6-1Zm97 0v1h6l-6-1ZM564 41v1h5l-5-1Zm114 0v1h5l-5-1ZM556 42v1h5l-5-1Zm131 0v1h4l-4-1ZM549 43v1h5l-5-1Zm145 0v1h4l-4-1ZM543 44v1h4l-4-1Zm157 0v1h4l-4-1ZM538 45v1h3l-3-1Zm168 0v1h4l-4-1ZM479 46v1h3l-3-1Zm53 0v1h4l-4-1Zm179 0v1h4l-4-1Zm54 0v1h3l-3-1ZM527 47v1h3l-3-1Zm190 0v1h3l-3-1Zm52 0v1h3l-3-1ZM522 48v1h3l-3-1Zm200 0v1h4l-4-1ZM516 49v1h3l-3-1ZM737 51v1h3l-3-1ZM502 52v1h3l-3-1Zm240 0v1h3l-3-1ZM746 53v1h3l-3-1ZM494 54v1h3l-3-1Zm256 0v1h3l-3-1ZM490 55v1h3l-3-1Zm264 0v1h3l-3-1ZM486 56v1h3l-3-1Zm272 0v1h3l-3-1ZM482 57v1h3l-3-1Zm280 0v1h3l-3-1ZM766 58v1h3l-3-1ZM460 63v1h3l-3-1ZM457 64v1h3l-3-1ZM827 65v1l4 1v-1l-4-1ZM815 73v1h3l-3-1ZM850 74v1l4 1v-1l-4-1ZM869 82v1l6 2v-1l-6-2Z"/><path fill="#EADB68" d="m351 93-5 3v1l6-3-1-1ZM899 95v1l4 2v-1l-4-2Z"/><path fill="#4E6B77" d="M909 101v1l4 2v-1l-4-2Z"/><path fill="#EADB68" d="m314 113-3 2v1l4-2-1-1ZM294 125v1l6-3-6 2Z"/><path fill="#4FA9D5" d="M949 123v1l4 2v-1l-4-2Z"/><path fill="#EADB68" d="m235 167-4 3v1l4-4ZM324 451v-1c-7.947-2.649-14.59-8.59-21-15-34.881-34.881-25.28-95.337 17-120 10.473-6.109 30.785-15.554 41-13v-1c-8.001-4.549-19.867-8.694-29-6-3.516-4.024-12.233-1.36-17-.718-18.512 2.495-34.273 12.383-46.96 25.718-44.847 47.139-8.748 130.993 55.96 131ZM971 298c-6.14 20.722-5.1 45.487-6.04 67-1.73 39.576-3.04 79.596-6.79 119-1.24 13.051-1.17 26.888-1.17 40 0 3.256-1.72 10.702.12 13.397 2.11 3.087 13.33 2.53 16.88 2.603l.01-177-.01-45-3-20ZM82 354l-1 3h1v-3ZM1166 358l1 3h1l-2-3ZM612 362c3.183 6.684 10.779 11.779 16 17l36 36c41.952 41.952 84.018 84.376 128 124.17 12.584 11.385 24.721 23.344 37.039 35 3.94 3.727 9.369 11.375 14.961 12.524 4.18.859 10.63-6.268 12.168-9.694 2.621-5.835-7.499-11.053-10.882-14.296-13.028-12.49-26.728-24.482-40.286-36.418-47.235-41.586-94.735-82.892-142-124.441-11.585-10.184-23.319-20.197-35-30.269-4.575-3.944-9.509-10.511-16-9.576Z"/><path fill="#4E6B77" d="m1172 371 2 6h1l-3-6ZM1183 396l1 4h1l-2-4ZM61 401l-1 4h1v-4ZM70 406v3h1l-1-3ZM52 425l-1 4h1v-4ZM1186 433v3h1l-1-3ZM1192 452v3h1l-1-3ZM53 455v3h1l-1-3Zm1140 0v3h1l-1-3ZM51 462v3h1l-1-3Zm1144 0v3h1l-1-3ZM1196 465v3h1l-1-3Z"/><path fill="#EADB68" d="M35 479v3h1l-1-3Z"/><path fill="#4E6B77" d="M1200 481v3h1l-1-3ZM35 483v3h1l-1-3Zm1176 0v3h1l-1-3ZM1201 485v3h1l-1-3ZM34 487v4h1l-1-4Zm1178 0v3h1l-1-3ZM44 489v3h1l-1-3ZM1202 490v3h1l-1-3ZM43 494v3h1l-1-3Zm1160 0v3h1l-1-3ZM42 498v3h1l-1-3Zm1162 0v4h1l-1-4ZM41 503v4h1l-1-4Zm1164 0v3h1l-1-3Z"/><path fill="#EADB68" d="M1216 504v3h1l-1-3Z"/><path fill="#4E6B77" d="M40 508v3h1l-1-3Zm1166 0v3h1l-1-3Z"/><path fill="#EADB68" d="M29 509v3h1l-1-3Z"/><path fill="#4E6B77" d="M39 513v3h1l-1-3Zm1168 0v3h1l-1-3Z"/><path fill="#EADB68" d="M28 515v3h1l-1-3Z"/><path fill="#4E6B77" d="M28 519v3h1l-1-3Zm10 0v3h1l-1-3Zm1170 0v4h1l-1-4Zm10 0v3h1l-1-3Z"/><path fill="#EADB68" d="M1219 520v3h1l-1-3Z"/><path fill="#4FA9D5" d="M27 523v3h1l-1-3Zm1192 0v3h1l-1-3Z"/><path fill="#4E6B77" d="M37 525v4h1l-1-4Zm1172 0v4h1l-1-4ZM27 526v3h1l-1-3Zm1192 0v3h1l-1-3Z"/><path fill="#EADB68" d="M26 527v3h1l-1-3Zm1194 0v3h1l-1-3Z"/><path fill="#4E6B77" d="M26 531v6h1l-1-6Zm10 1v4h1l-1-4Zm1174 0v4h1l-1-4Zm10 0v5h1l-1-5Z"/><path fill="#EADB68" d="M25 534v4h1l-1-4Zm1196 0v3h1l-1-3Z"/><path fill="#4E6B77" d="M25 539v7h1l-1-7Zm10 0v4h1l-1-4Zm1176 0v4h1l-1-4Zm10 0v7h1l-1-7Z"/><path fill="#EADB68" d="M24 541v6h1l-1-6Zm1198 1v4h1l-1-4Z"/><path fill="#4E6B77" d="M34 546v5h1l-1-5ZM1212 547v5h1l-1-5ZM24 548v9h1l-1-9Zm1198 0v5h1l-1-5Z"/><path fill="#EADB68" d="M23 551v7h1l-1-7Zm1200 0v7h1l-1-7Z"/><path fill="#4E6B77" d="M33 555v5h1l-1-5Zm1180 0v5h1l-1-5ZM23 560v5h1l-1-5Zm1200 0v5h1l-1-5Zm-9 3v7h1l-1-7Z"/><path fill="#EADB68" d="M22 564v13h1l-1-13Z"/><path fill="#4E6B77" d="M32 564v6h1l-1-6Z"/><path fill="#EADB68" d="M1224 565v12h1l-1-12Z"/><path fill="#4E6B77" d="M31 573v7h1l-1-7Zm1184 0v7h1l-1-7Z"/><path fill="#EADB68" d="M1055 661c-15.28-81.106-116.94-114.469-175.729-54.711-9.282 9.435-16.927 21.416-21.821 33.711-9.758 24.516-9.755 52.493 0 77 2.3 5.78 7.411 20.587 14.565 21.382 12.464 1.385 30.495-10.094 39.985-17.022 15.27-11.143 29.16-25.36 41.83-39.36 12.55-13.875 26.59-30.498 45.17-36.226 21.88-6.747 37.23 7.136 56 15.226Z"/><path fill="#4E6B77" d="M22 579v14h1l-1-14Zm1202 0v15h1l-1-15ZM30 585v6h1l-1-6Zm1186 0v7h1l-1-7Z"/><path fill="#EADB68" d="M22 595v5h1l-1-5Zm1202 0v4h1l-1-4Z"/><path fill="#4FA9D5" d="M1223 605v4h1l-1-4ZM23 606v3h1l-1-3Z"/><path fill="#4E6B77" d="M1216 607v31h1l-1-31ZM23 609v38h1c0-10.911 3.211-27.964-1-38Zm1200 0v42h1c0-11.957 3.61-31.012-1-42ZM30 610v27h1l-1-27Zm613 34v1h12l-12-1Zm361 0v1h15l-15-1ZM636 645v1h4l-4-1Zm21 0v1h5l-5-1ZM1000 645v1h4l-4-1Zm20 0v1h3l-3-1ZM632 646v1h3l-3-1Zm31 0v1h3l-3-1ZM997 646v1h3l-3-1Z"/><path fill="#EADB68" d="M22 647v236h1V669l-1-22Zm487 1c2.816 9.789 19.546 8.292 28 8.911 23.515 1.724 62.852 15.837 80-4.911l-77-3.015-31-.985ZM693 656v1c10.992 6.415 23.202 15.888 35 20.337 13.375 5.044 34.733 5.054 49 5.702 5.861.267 20.412 4.843 25.258.933 4.045-3.264 3.702-17.09 3.742-21.972l-78-4.089L693 656ZM1224 656v162h1V704c0-13.515 4.21-35.593-1-48Z"/><path fill="#4E6B77" d="m1052 660 3 2v-1l-3-1ZM714 669l3 2v-1l-3-1ZM31 681v8h1l-1-8Zm1184 5v45h1c0-12.742 3.91-33.299-1-45ZM31 691v136h1v-95c0-11.682 3.507-30.258-1-41ZM1140 711v1h3l-3-1ZM1169 721v1h3l-3-1Zm-951 4v1l36 3c-9.884-5.959-24.922-4-36-4ZM207 727v1l11-1h-11Zm986 0v1h3l-3-1Zm-996 3v1l10-2-10 1Zm1000-2v1h3l-3-1Zm-943 1v1l6 1-6-2Zm947 0v1h4l-4-1ZM1206 730v1h3l-3-1Zm-1012 1v1h3l-3-1ZM1211 731v1h4l-4-1Zm-1020 1v1h3l-3-1Zm73 0v1l4 1v-1l-4-1Zm-78 2v1h3l-3-1Zm-9 4v1l9-3-9 2Zm93-3v1h3l-3-1ZM273 736l6 3v-1l-6-2Zm558 0v1h3l-3-1ZM878 737v1h3l-3-1Zm-39 1v1h3l-3-1ZM874 738v1h4l-4-1Zm-30 1v1h5l-5-1Zm22 0v1h7l-7-1Zm-14 1v1h11l-11-1Zm-570 1v1l4 1v-1l-4-1Zm-121 6v1l7-3-7 2Zm128-2v1l5 2v-1l-5-2Zm-132 4v1l4-1h-4Zm-5 3-2 1v1l2-2Zm-5 3 2 2v-2h-2Zm-8 5v1l5-2-5 1Zm185 9 4 3v-1l-4-2Zm6 5v2h2l-2-2Zm144 1v2l2-2h-2Zm-368 8 1 1 3-4-4 3Zm229-3v2h2l-2-2ZM349 790v3h2l1-1v-1l-3 1v-2ZM66 809l-1 2h2l-1-2Zm304 0v2h2l-2-2Zm6 6-1 3 3-2-2-1Z"/><path fill="#4FA9D5" d="M1224 818v4h1l-1-4Z"/><path fill="#4E6B77" d="M381 822v1l5 2-5-3Zm843 0v9h1l-1-9ZM43 825l-1 2h2l-1-2Zm343 0 2 2v-2h-2Z"/><path fill="#EADB68" d="M1225 828v3h1l-1-3Z"/><path fill="#4FA9D5" d="M1224 831v13h1l-1-13Z"/><path fill="#4E6B77" d="m398 837 3 2v-1l-3-1Z"/><path fill="#EADB68" d="M1224 844v21h1l-1-21Z"/><path fill="#4E6B77" d="M1223 867v67h1v-46l-1-21Zm-205 6v1l7 1v-1l-7-1ZM23 883v74h1v-51l-1-23Zm425 0v2h2l-2-2Zm606 0v1h3l-3-1ZM33 898v7h1l-1-7Zm695 13v1l4 1v-1l-4-1Zm-83 9v1l4-1h-4Z"/><path fill="#4FA9D5" d="M1224 934v5h1l-1-5Z"/><path fill="#4E6B77" d="M549 935v1h3l-3-1Zm674 4v22h1l-1-22Z"/><path fill="#EADB68" d="M1224 939v5h1l-1-5Z"/><path fill="#4E6B77" d="M1213 945v48h1c0-13.53 4.21-35.586-1-48Zm-431 5v1h3l-3-1Z"/><path fill="#4FA9D5" d="M23 957v16h1l-1-16ZM1223 961v78h1v-54l-1-24Z"/><path fill="#4E6B77" d="M816 964v1h4l-4-1Zm12 2v1h4l-4-1Zm28 0v1h3l-3-1Z"/><path fill="#EADB68" d="M23 973v19h1l-1-19Z"/><path fill="#4FA9D5" d="M23 992v20h1l-1-20Z"/><path fill="#4E6B77" d="M33 1005v20h1l-1-20Zm1180 1v3h1l-1-3Zm-1190 6v60h1v-41l-1-19Zm10 21v8h1l-1-8Z"/><path fill="#EADB68" d="M22 1037v12h1l-1-12Z"/><path fill="#4FA9D5" d="M1223 1041v4h1l-1-4Z"/><path fill="#EADB68" d="M1224 1041v7h1l-1-7Z"/><path fill="#4FA9D5" d="M1223 1047v14h1l-1-14Z"/><path fill="#4E6B77" d="M260 1058v1h4l-4-1Zm862 0v1h10l-10-1Zm91 0-3 2v1c2.35-.29 3.95-.49 3-3Zm-1180 2 11 2h152v-1H87l-54-1Zm213 0v1l90 1-29-1-61-1Zm182 0v1h8l-8-1Zm16 0v1h24l-24-1Zm72 0v1h52l-17-1h-35Zm88 0v1h8l-8-1Zm16 0v1h6l-6-1Zm8 0v1h16l-16-1Zm32 0v1h15l-15-1Zm16 0v1h4l-4-1Zm8 0v1h16l-16-1Zm24 0v1h3l-3-1Zm436 0v1h4l-4-1Zm6 0v1h6l-6-1Zm34 0v1h9l-9-1Zm12 0v1h8l-8-1Zm-992 1v1h18l-18-1Z"/><path fill="#EADB68" d="M1224 1064v7h1l-1-7Z"/><path fill="#4E6B77" d="M1193 1071v1h22l-22-1Z"/><path fill="#EADB68" d="M32 1117h1v-44h259l-19-1H50l-16.397 1.03L32 1085v32Z"/><path fill="#4E6B77" d="M294 1072v1h291l-27-1H294Zm348 0v1h240l-22-1H642Zm242 0v1h222l-21-1H884Z"/><path fill="#4FA9D5" d="M1106 1072v1h62l-20-1h-42Z"/><path fill="#EADB68" d="M1168 1072v1h44c-11.46-4.81-31.52-1-44-1Z"/><path fill="#FEFEFE" d="m33 1073 1 207 104-2 170-2 263-5 122 2 333 4 108 1 79 2 1-208-46 1h-85l-252 1-798-1Z"/><path fill="#EADB68" d="M1223 1072v207h1v-187l-1-20Zm-1200 1v206h1v-186l-1-20Zm271 0v1h292l-27-1H294Z"/><path fill="#4FA9D5" d="M586 1073v1h53l-17-1h-36Z"/><path fill="#EADB68" d="M639 1073v1h413c-9.79-4.11-26.37-1-37-1H639Zm575 0v26h1l-1-26Z"/><path fill="#4E6B77" d="M1214 1100v178h1v-161l-1-17ZM32 1119v159h1v-111c0-13.51 4.206-35.59-1-48Z"/><path fill="#0D5634" d="M223.128 1123.76c-7.516 1.3-6.461 19.15 1.779 17.81 7.147-1.15 7.203-19.36-1.779-17.81ZM772.128 1123.76c-7.516 1.3-6.461 19.15 1.779 17.81 7.147-1.15 7.203-19.36-1.779-17.81ZM57 1138h9c-1.507 19.07-6.297 39.09-9.615 58-1.063 6.06-.561 15.85-7.385 18v8h19v-8l-6-2v-2l4-18c11.216 0 20.282 4.14 16.552 17.94-.904 3.34-9.822 6.9-4.806 11.03 2.598 2.14 14.91 2.14 17.508 0 3.71-3.06-.159-6.43-3.254-6.97-2.37-18.74-5.807-37.31-8.573-56-1.235-8.35-1.264-19.14-4.317-26.96-2.419-6.2-16.324-9.47-21.216-4.44-2.824 2.91-1.173 7.86-.894 11.4Z"/><path fill="#EADB68" d="M448 1125v2h2v-2h-2Z"/><path fill="#0D5634" d="M450 1125v13l5 1c-2.738 24.52 4.364 50.95-2 75l-2-2c-7.183 11.41 11.291 14.47 15.968 8.4 2.85-3.7-3.649-9.31-3.925-13.4-1.053-15.64-.403-31.38-1.043-47h2c.031 11.23 1.907 22.88 3.425 34 .388 2.84.357 10.36 4.6 10.36 4.506 0 4.785-7.29 5.105-10.35 1.216-11.61 3.629-23.33 3.87-35.01h1v53c-3.764.65-7.491 5.72-3.397 8.97 2.781 2.21 11.007 1.45 14.338.88 6.969-1.19 3.824-9.39-1.941-9.85v-74h5c.608-3.27 2.138-8.47-.179-11.4-2.836-3.58-14.83-2.48-16.816 1.55-2.337 4.74-1.688 10.76-2.291 15.85-1.375 11.62-2.793 23.33-3.714 35-5.558-10.41-4.325-27.3-5.714-39-.473-3.98.596-11.16-3.014-13.97-3.133-2.44-10.491-1.03-14.272-1.03ZM899 1125l4.94 19 .06 68c-5.45.95-4.99 5.27-5 10h19c.8-4.92.57-9.04-5-10v-34h19c0 7.96 4.01 31.27-5 34-.45 2.46-1.69 6.17.03 8.4 2.15 2.77 14.65 2.83 16.78 0 1.68-2.25.28-5.85.19-8.4h-4v-74c5.63-1.65 4.54-8.3 4-13h-17v13c8.51 2.58 5 20.67 5 28h-19v-28h4l1-13h-19ZM1057 1139c3.51-.84 9.51-2.37 11.97 1.32 2.6 3.89 1.03 12.18 1.03 16.68v39c0 4.4 1.38 11.84-1.18 15.68-2.6 3.9-10.78 2.32-14.82 2.32l2 11h1v-3c8.68 0 25.41-3.29 32 3 8.46-11.89-1.56-11.55-10-11l-1-89c-11.63 0-28.17-3-21 14Z"/><path fill="#4FA9D5" d="M1078 1125v86h1v-59l-1-27Z"/><path fill="#0D5634" d="M1150 1138h4v74c-14.03 2.44 5.78 17.59 12.82 8.4 3.57-4.67-3.47-8.35-4.1-12.45-1.44-9.33-2.54-31.41 1.42-39.95 3.89-8.37 13.53-8.57 15.39 1 2.57 13.16 1.91 31.87-.53 45l-4-2c-3.19 13.44 10.64 10 20 10l-1-10-4 2c-3.1-16.68 1.93-34.49-1.67-51-2.01-9.23-8.07-16.23-18.27-13.05-3.37 1.05-5.1 4.29-8.06 6.05l1-30c-11.2-3.31-15.01 1.18-13 12ZM358 1129c0 7.4 2.703 20.46-7 22l-1 13c10.993.84 8 14.96 8 23 0 12.44-3.934 33.92 12.129 38.57 4.705 1.36 10.15.03 14.871-.57 2.938-5.49 17.227-16.04 8.567-23.25-7.78-6.48-10.022 19.52-22.353 12.22-8.275-4.89-4.214-28.67-4.214-36.97 0-3.31-.981-8.81 1.603-11.4 4.438-4.43 12.928.91 17.743-2.63 3.812-2.8 1.273-8.3.654-11.97-4.709 0-15.5 2.01-19.127-1.43-6.572-6.24 6.229-22.82-9.873-20.57ZM659 1129c0 7.4 2.703 20.46-7 22l-1 13c10.772.82 8 14.08 8 22 0 11.67-4.152 35.07 11.129 39.57 4.687 1.38 10.165.02 14.871-.57 2.858-5.39 15.703-16.65 7.571-23.24-6.435-5.22-9.669 19.08-21.357 12.21-8.275-4.86-4.214-28.69-4.214-36.97 0-3.31-.981-8.81 1.603-11.4 4.438-4.43 12.928.91 17.743-2.63 3.812-2.8 1.273-8.3.654-11.97-4.541 0-16.71 2.16-19.621-2.03-4.474-6.44 5.54-21.81-8.379-19.97Z"/><path fill="#4E6B77" d="M898 1128v5h1l-1-5Z"/><path fill="#EADB68" d="M925 1128v5h1l-1-5ZM1054 1128v3h1l-1-3Z"/><path fill="#0D5634" d="M1108 1129c0 7.93 2.77 21.18-8 22l-1 13c11.77.38 9 13.34 9 22 0 11.67-4.15 35.07 11.13 39.57 4.4 1.3 9.46-.01 13.87-.57 3.02-5.38 17.1-14.78 10.26-22.35-9.26-10.23-11.79 20.62-23.87 10.75-7.29-5.97-3.39-27.84-3.39-36.4 0-3.31-.98-8.81 1.6-11.4 4.6-4.6 13.61 1.32 18.25-3.49 3.26-3.38.04-7.47-.85-11.11h-19c-.95-7.69 3.97-23.58-8-22Z"/><path fill="#EADB68" d="M1148 1128v5h1l-1-5ZM55 1129v3h1l-1-3Zm175 0v4h1l-1-4ZM447 1129v3h1l-1-3Z"/><path fill="#4E6B77" d="M497 1129v3h1l-1-3Z"/><path fill="#EADB68" d="M779 1129v4h1l-1-4ZM766 1130v3h1l-1-3Z"/><path fill="#4E6B77" d="M357 1131v16h1l-1-16Zm120 0v4h1l-1-4Zm181 0v16h1l-1-16Zm449 0v16h1l-1-16Z"/><path fill="#EADB68" d="M1116 1131v4h1l-1-4Zm-749 1v3h1l-1-3ZM667 1132v3h1l-1-3ZM1054 1132v3h1l-1-3Z"/><path fill="#4E6B77" d="M448 1133v2h2v-2h-2Z"/><path fill="#EADB68" d="M56 1135v3h1l-1-3Z"/><path fill="#4FA9D5" d="M80 1135v3h1l-1-3Z"/><path fill="#4E6B77" d="M218 1135v3h1l-1-3Zm11 0v3h1l-1-3Z"/><path fill="#EADB68" d="M467 1135v3h1l-1-3Z"/><path fill="#4E6B77" d="M496 1135v3h1l-1-3Zm271 0v3h1l-1-3Zm11 0v3h1l-1-3Zm121 0v3h1l-1-3Zm18 0v3h1l-1-3Zm26 0v3h1l-1-3Zm112 0v3h1l-1-3Z"/><path fill="#EADB68" d="M1149 1135v3h1l-1-3Z"/><path fill="#4E6B77" d="M1162 1135v6h1l-1-6ZM80 1138v3h1l-1-3Z"/><path fill="#EADB68" d="M476 1138v4h1l-1-4Z"/><path fill="#4FA9D5" d="M491 1139v72h1v-49l-1-23Z"/><path fill="#EADB68" d="M913 1139v27h1l-1-27Z"/><path fill="#4E6B77" d="M931 1139v27h1l-1-27Z"/><path fill="#EADB68" d="M1069 1139v73h1v-50l-1-23Z"/><path fill="#4E6B77" d="M366 1142v5h1l-1-5Zm88 0v68h1v-47l-1-21Zm22 0v4h1l-1-4ZM903 1142v70h1v-48l-1-22Zm212 0v6h1l-1-6ZM666 1143v4h1l-1-4Z"/><path fill="#EADB68" d="M64 1144v3h1l-1-3Z"/><path fill="#4E6B77" d="M24 1145v24h1l-1-24ZM468 1147v3h1l-1-3Z"/><path fill="#EADB68" d="M475 1147v3h1l-1-3Z"/><path fill="#0D5634" d="m114 1157-1-6H99v13h5l-1 50-4-2v10h19c.416-4 .498-7.56-3-10l1 2h-1c-4.417-9.18-4.444-33.14-1.486-43 1.42-4.73 6.964-10.79 12.432-9.52 5.192 1.2 5.925 8.15 6.039 12.52.339 12.97 1.386 27.23-.985 40l-3-2-1 10h20l-1-10-4 2c-2.921-15.73 2.542-33.36-1.46-48.71-4.325-16.59-15.059-19.07-26.54-8.29ZM185 1225c3.128-5.73 9.577-8.65 10.17-16 .245-3.04-1.657-8.98-5.841-6.86-5.638 2.85-4.458 11.21-12.344 12.63-17.569 3.17-20.442-24.75-17.765-36.68.668-2.98 1.811-6.38 3.228-9.08a17.572 17.572 0 0 1 4.171-5.21c17.17-14.53 15.911 18.84 24.342 17.91 3.214-.35 4.004-2.87 3.93-5.73-.227-8.74.103-17.22.109-25.98-5.254-.96-8.529-1.04-9 5h-2c-2.315-13.33-22.175-2.35-26.946 3.39-13.257 15.95-10.425 58.04 10.205 66.73 5.303 2.24 12.274.57 17.741-.12Z"/><path fill="#4E6B77" d="M175 1149v1h3l-3-1Z"/><path fill="#0D5634" d="M266 1225h18c5.347-9.5 16.127-10.56 8-23-5.387 2.66-6.664 9.27-12.171 11.91-12.793 6.13-19.389-11.31-19.829-20.91h36c0-13.84-3.116-33.18-15.545-41.85-16.506-11.51-28.545 18.15-29.365 29.85-.647 9.22-.903 21.36 3.638 29.71 3.001 5.52 8.345 9.07 11.272 14.29ZM313 1157l-1-6h-12v13h4l-1 50-3-2v10h17c.416-4 .498-7.56-3-10l1 2h-1c-4.417-9.18-4.444-33.14-1.486-43 1.421-4.73 6.964-10.79 12.432-9.52 5.192 1.2 5.925 8.15 6.039 12.52.339 12.97 1.386 27.23-.985 40l-3-2-1 10h20l-1-10-4 2-1.174-48-5.826-15c-10.459-2.39-13.471-1.07-21 6ZM512 1151c-2.037 6.89-8.263 11.7-10.431 19-4.923 16.59-4.313 47.27 14.69 55.12 4.838 2 10.774.51 15.741-.12 3.291-5.87 8.913-9.06 11.164-16 5.263-16.22 5.985-49.1-12.463-58.28-5.807-2.89-12.769-.87-18.701.28Z"/><path fill="#4E6B77" d="M621 1149v1h3l-3-1Z"/><path fill="#0D5634" d="m612 1157-1-6h-13v13h5c0 15.3 3.502 35.64-2 50h-1l-2-2v10h18l-1-10-3 2c-2.155-11.61-3.904-31.61-.486-43 1.769-5.89 8.937-12.03 15.353-9.26 4.737 2.05 5.075 8.86 5.129 13.26.156 12.73 1.332 26.46-.996 39l-3-2-1 10h20l-1-10-5 2c-3.077-16.58 2.377-34.72-1.705-51-4.169-16.62-16.942-15.72-27.295-6ZM708 1151c-1.354 4.58-6.749 7.41-7.381 12.08-.417 3.09 1.895 6.3 5.229 5.26 3.652-1.14 5.559-5.3 9.241-6.64 10.768-3.89 14.84 6.8 14.911 15.3-8.59-.25-15.961-3.6-23.384 3.39-10.39 9.79-10.634 36.74 2.839 44.33 4.55 2.56 10.702.89 15.545.28l5-6c6.256 9.65 23.631-2.67 11-7l1 2c-5.672-3.31-4-11.23-4-17 0-14.83 4.717-46.17-17-47.81-4.366-.34-8.747.99-13 1.81ZM812 1157l-1-6h-12v13h4l-1 50-3-2v10h17l-1-10-3 2c-2.155-11.61-3.904-31.61-.486-43 1.42-4.73 6.964-10.79 12.432-9.52 5.192 1.2 5.925 8.15 6.039 12.52.339 12.97 1.386 27.23-.985 40l-3-2-1 10h20l-1-10-4 2c-2.574-13.87-.933-28.93-1.001-43-.029-5.96-.47-13.9-6.999-16-2.168-12.52-15.465-2.26-20 2ZM962 1151c-1.67 5.87-6.84 10.02-8.92 16-5.34 15.37-5.99 32.29 1.96 47 2.36 4.36 6.62 6.82 8.96 11h18c5.42-9.62 15.28-9.54 9-23-5.95 2.55-7.47 9.18-13.17 11.91-12.79 6.13-19.39-11.31-19.83-20.91h36c0-20.85-6.48-47.26-32-42ZM1008 1151v4c-4.26 1.24-14.05 12.06-4.88 13.57 4.56.76 7.41-4.75 11.05-6.48 10.64-5.06 15.76 6.54 15.83 14.91-9.35-.1-18.11-3.45-25.79 4.71-9.97 10.58-7.91 36.03 5.25 43.03 4.41 2.34 9.88.85 14.54.26l6-6c5.11 7.89 17.71 3.25 14-7l-5 2c-3.26-17.56 8.56-63.34-19-64.79-4.02-.21-8.08 1.03-12 1.79Z"/><path fill="#EADB68" d="M62 1150v5h2v-5h-2Z"/><path fill="#4FA9D5" d="M72 1150v3h1l-1-3Z"/><path fill="#FEFEFE" d="m73 1150-4 29h9l-5-29Z"/><path fill="#4E6B77" d="M475 1150v6h1l-1-6ZM1162 1150v4h1l-1-4Z"/><path fill="#EADB68" d="M98 1151v4h1l-1-4Z"/><path fill="#4E6B77" d="M113 1151v5h1l-1-5Zm4 0v4h1l-1-4Zm17 0v4h1l-1-4Zm28 0v4h1l-1-4ZM195 1151v5h1l-1-5Zm14 0-1 5h1v-5Z"/><path fill="#0D5634" d="M210 1151c-.763 3.72-3.437 9.15.573 11.97 3.368 2.37 8.785-.49 10.824 4.18 3.62 8.29.604 23.82.603 32.85 0 3.1.822 7.97-1.603 10.4-3.071 3.07-8.441.78-12.169 1.92-3.066.94-4.161 5.58-2.199 8.08 2.213 2.82 8.835 1.6 11.971 1.6 8.074 0 33.707 4.13 25-10h-1c-4.578 3.47-11.161 2.41-11.891-4-2.107-18.5-.109-38.37-.109-57h-20Z"/><path fill="#EADB68" d="M263 1151v4h1l-1-4Z"/><path fill="#4E6B77" d="M282 1151v4h1l-1-4Z"/><path fill="#EADB68" d="M299 1151v4h1l-1-4Z"/><path fill="#4E6B77" d="M312 1151v5h1l-1-5Zm4 0v4h1l-1-4Zm18 0v4h1l-1-4Zm16 0v4h1l-1-4Z"/><path fill="#EADB68" d="M387 1151v4h1l-1-4Zm124 0v4h1l-1-4Z"/><path fill="#4E6B77" d="M533 1151v4h1l-1-4Z"/><path fill="#EADB68" d="M548 1151v4h1l-1-4Z"/><path fill="#0D5634" d="M549 1151c-.735 5.81-2.665 12.39 5 13 0 15.62-3.708 37.29 2.287 52 2.319 5.68 17.37 16.95 19.713 6h19l-1-10-4 2-1-63h-14c-.832 6.59-2.439 12.72 6 13 0 12.88 2.835 29.54-.43 42-1.361 5.19-6.673 10.57-12.44 8.41-6.062-2.28-5.445-10.41-5.221-15.58.684-15.76-2.054-32.25.091-47.83h-14Z"/><path fill="#4E6B77" d="M574 1151v4h1l-1-4Z"/><path fill="#EADB68" d="M589 1151v55h1v-37l-1-18Zm8 0v4h1l-1-4Z"/><path fill="#4E6B77" d="M611 1151v5h1l-1-5Zm4 0v4h1l-1-4Zm19 0v4h1l-1-4Zm17 0v4h1l-1-4Z"/><path fill="#EADB68" d="M687 1151v4h1l-1-4Zm20 0v4h1l-1-4Z"/><path fill="#4FA9D5" d="M730 1151v4h1l-1-4Z"/><path fill="#4E6B77" d="m759 1151-1 5h1v-5Z"/><path fill="#0D5634" d="M760 1151c-.763 3.72-3.436 9.15.573 11.97 3.135 2.21 7.938-.14 9.824 4.18 3.62 8.29.604 23.82.603 32.85 0 3.1.822 7.97-1.603 10.4-3.071 3.07-8.441.78-12.169 1.92-3.066.94-4.161 5.58-2.199 8.08 2.101 2.68 8.004 1.6 10.971 1.6 7.94 0 33.648 4.09 25-10h-1c-7.903 5.99-10.989-2.18-11-9v-52h-19Z"/><path fill="#EADB68" d="M798 1151v4h1l-1-4Z"/><path fill="#4E6B77" d="M811 1151v5h1l-1-5Zm4 0v4h1l-1-4Zm17 0v4h2v-4h-2Z"/><path fill="#EADB68" d="M961 1151v4h1l-1-4Z"/><path fill="#4E6B77" d="M980 1151v4h1l-1-4Z"/><path fill="#EADB68" d="M1006 1151v4h2v-4h-2Z"/><path fill="#4FA9D5" d="M1030 1151v4h1l-1-4Z"/><path fill="#4E6B77" d="M1099 1151v4h1l-1-4Z"/><path fill="#EADB68" d="M1135 1151v4h2v-4h-2Z"/><path fill="#4E6B77" d="M1165 1151v4h1l-1-4ZM98 1155v7h1l-1-7ZM299 1155v7h1l-1-7ZM597 1155v7h1l-1-7ZM798 1155v7h1l-1-7Z"/><path fill="#EADB68" d="M74 1156v3h1l-1-3Z"/><path fill="#4FA9D5" d="M83 1156v3h1l-1-3ZM469 1156v3h1l-1-3Z"/><path fill="#EADB68" d="M547 1156v5h1l-1-5Z"/><path fill="#4E6B77" d="M573 1156v5h1l-1-5Z"/><path fill="#EADB68" d="M61 1157v3h1l-1-3ZM348 1157v4h1l-1-4ZM649 1157v4h1l-1-4ZM1097 1157v4h1l-1-4Z"/><path fill="#4E6B77" d="M562 1159v5h1l-1-5ZM462 1160v6h1l1-6h-2Z"/><path fill="#FEFEFE" d="M260 1181h26c-.82-9.4-9.687-28.17-20.695-15.66-3.699 4.21-4.279 10.37-5.305 15.66Z"/><path fill="#4E6B77" d="M474 1161v4h1l-1-4Z"/><path fill="#FEFEFE" d="M521.039 1161.57c-19.799 2.74-17.904 56.81 3.922 53.2 6.331-1.05 8.21-6.65 9.97-11.94 3.609-10.84 5.228-43.9-13.892-41.26Z"/><path fill="#EADB68" d="M621 1161v1h3l-3-1Z"/><path fill="#FEFEFE" d="M958 1181h26c-.76-9.36-9.69-28.12-20.7-15.66-3.7 4.2-4.28 10.38-5.3 15.66Z"/><path fill="#EADB68" d="M75 1162v3h1l-1-3Z"/><path fill="#4E6B77" d="M139 1162v2h2v-2h-2Z"/><path fill="#EADB68" d="M178 1162v2h2v-2h-2ZM194 1162v4h1l-1-4Z"/><path fill="#4E6B77" d="M255 1162v2h2v-2h-2Z"/><path fill="#EADB68" d="M481 1162v49h1c0-13.79 4.309-36.35-1-49Z"/><path fill="#4FA9D5" d="M1135 1162v2h2v-2h-2Z"/><path fill="#EADB68" d="M103 1164v4h1l-1-4ZM303 1164v4h1l-1-4ZM601 1164v4h2v-4h-2ZM653 1164v1h3l-3-1ZM802 1164v4h1l-1-4Z"/><path fill="#4E6B77" d="M221 1165v46h1c0-13 4.01-34.06-1-46Z"/><path fill="#4FA9D5" d="M470 1165v3h1l-1-3Z"/><path fill="#4E6B77" d="M770 1165v46h1c0-13 4.01-34.06-1-46Z"/><path fill="#4FA9D5" d="M194 1166v4h1l-1-4Z"/><path fill="#4E6B77" d="M580 1167v37h1c0-10.65 3.111-27.2-1-37ZM131 1168v44h1c0-12.48 3.81-32.54-1-44ZM330 1168v44h1c0-12.48 3.81-32.54-1-44Zm27 0v42h1c0-11.96 3.611-31.01-1-42ZM631 1168v44h1c0-12.48 3.81-32.54-1-44Zm27 0v42h1c0-11.96 3.611-31.01-1-42ZM829 1168v44h1c0-12.48 3.81-32.54-1-44ZM1107 1168v42h1c0-11.96 3.61-31.01-1-42ZM113 1169v43h1c0-12.22 3.71-31.77-1-43ZM312 1169v43h1c0-12.22 3.71-31.77-1-43Zm299 0v43h1c0-12.22 3.711-31.77-1-43ZM729 1169v4h1l-1-4ZM811 1169v43h1c0-12.22 3.711-31.77-1-43ZM1029 1169v4h1l-1-4Z"/><path fill="#EADB68" d="M1189 1169v37h1c0-10.65 3.11-27.2-1-37Zm-1130 1v3h1l-1-3Z"/><path fill="#4FA9D5" d="M69 1170v3h1l-1-3Z"/><path fill="#4E6B77" d="M85 1170v3h1l-1-3Zm66 0v3h1l-1-3Zm10 0v3h1l-1-3Z"/><path fill="#EADB68" d="M184 1170v3h1l-1-3Z"/><path fill="#4E6B77" d="M194 1170v3h1l-1-3Zm58 0v3h1l-1-3Z"/><path fill="#4FA9D5" d="M284 1170v3h1l-1-3Z"/><path fill="#EADB68" d="M464 1170v4h1l-1-4Z"/><path fill="#4FA9D5" d="M510 1170v3h1l-1-3Z"/><path fill="#4E6B77" d="M544 1170v3h1l-1-3Z"/><path fill="#4FA9D5" d="M738 1170v41h1c0-11.7 3.511-30.25-1-41Z"/><path fill="#4E6B77" d="M951 1170v3h1l-1-3Z"/><path fill="#4FA9D5" d="M1038 1170v41h1c0-11.7 3.51-30.25-1-41Z"/><path fill="#EADB68" d="M1179 1170v41h1c0-11.7 3.51-30.25-1-41Z"/><path fill="#4E6B77" d="M473 1172v3h1l-1-3ZM462 1173v7h1l-1-7Z"/><path fill="#EADB68" d="M150 1174v3h1l-1-3Z"/><path fill="#4E6B77" d="M185 1174v3h1l-1-3Z"/><path fill="#EADB68" d="m729 1174-2 3c2.251-.47 3.118-.86 2-3ZM77 1175v3h1l-1-3Z"/><path fill="#4E6B77" d="M159 1175v2h2v-2h-2ZM251 1175v3h1l-1-3ZM714 1175v2h2v-2h-2Zm9 0v2h3v-2h-3ZM949 1175v3h2v-3h-2ZM1014 1175v2h2v-2h-2Zm8 0v2h3v-2h-3Z"/><path fill="#4FA9D5" d="M1025 1175v2h3v-2h-3Z"/><path fill="#4E6B77" d="M150 1177v4h1l-1-4ZM931 1178v33h1l-1-33ZM58 1179v3h1l-1-3Z"/><path fill="#EADB68" d="M250 1179v4h1l-1-4Z"/><path fill="#4E6B77" d="M295 1179v3h1l-1-3Z"/><path fill="#EADB68" d="M465 1179v4h1l-1-4Z"/><path fill="#4E6B77" d="M499 1179v5h1l-1-5Zm38 0v3h1l-1-3Z"/><path fill="#EADB68" d="M913 1179v28h1l-1-28Zm35 0v4h1l-1-4Z"/><path fill="#4E6B77" d="M993 1179v3h1l-1-3ZM158 1182v11h1l-1-11Z"/><path fill="#EADB68" d="M537 1182v12h1l-1-12Z"/><path fill="#4FA9D5" d="M546 1182v12h1l-1-12Z"/><path fill="#EADB68" d="M57 1183v3h1l-1-3ZM149 1183v9h1l-1-9Z"/><path fill="#4E6B77" d="M250 1183v11h1l-1-11ZM466 1184v3h1l-1-3ZM24 1185v88h1v-61l-1-27Zm483 0v6h1l-1-6Zm441 0v9h1l-1-9Z"/><path fill="#EADB68" d="M717 1186v1h3l-3-1Z"/><path fill="#FEFEFE" d="M729 1187c-4.552-.17-9.429-1.22-13.86.4-16.809 6.12-1.685 42.27 11.724 21.27 1.428-2.23 1.854-5.07 2.046-7.67.341-4.63.09-9.36.09-14ZM1029 1187c-4.53-.09-9.51-1.57-13.86.26-16.26 6.87-2.06 41.91 11.04 20.81 1.37-2.21 2.43-4.48 2.71-7.08.5-4.59.11-9.38.11-13.99Z"/><path fill="#EADB68" d="M466 1187v5h1l-1-5ZM729 1187v15h1l-1-15ZM1029 1187v15h1l-1-15Zm-973 1v5h1l-1-5Zm644 0v4h1l-1-4Z"/><path fill="#4E6B77" d="M711 1188v4h1l-1-4Z"/><path fill="#EADB68" d="M999 1188v4h1l-1-4Z"/><path fill="#4E6B77" d="M1011 1188v3h1l-1-3Zm-549 1v3h1l-1-3ZM56 1193v3h1l-1-3Z"/><path fill="#4FA9D5" d="M287 1193v1h5l-5-1ZM477 1193v3h1l-1-3Z"/><path fill="#4E6B77" d="M499 1193v3h1l-1-3Z"/><path fill="#EADB68" d="M699 1193v3h1l-1-3Z"/><path fill="#4FA9D5" d="M985 1193v1h4l-4-1Z"/><path fill="#EADB68" d="M998 1193v3h1l-1-3ZM55 1196v3h1l-1-3Z"/><path fill="#4E6B77" d="M150 1196v3h1l-1-3Z"/><path fill="#EADB68" d="M467 1196v3h1l-1-3Z"/><path fill="#4E6B77" d="M699 1196v3h1l-1-3ZM998 1196v3h1l-1-3ZM81 1197v3h1l-1-3Z"/><path fill="#4FA9D5" d="M159 1197v2h2v-2h-2Z"/><path fill="#4E6B77" d="M462 1197v3h1l-1-3Z"/><path fill="#EADB68" d="M536 1197v3h1l-1-3ZM949 1200v2h2v-2h-2ZM54 1202v3h1l-1-3Z"/><path fill="#4E6B77" d="M699 1202v8h1l-1-8ZM987 1202v2h2v-2h-2ZM998 1202v8h1l-1-8ZM82 1204v4h1l-1-4ZM54 1205v3h1l-1-3Zm141 0v3h1l-1-3Zm68 0v3h1l-1-3Z"/><path fill="#EADB68" d="M286 1205v3h1l-1-3ZM367 1205v3h1l-1-3Z"/><path fill="#4E6B77" d="M385 1205v3h1l-1-3Z"/><path fill="#4FA9D5" d="M511 1205v3h1l-1-3Z"/><path fill="#4E6B77" d="M554 1205v6h1l-1-6Zm26 0v3h1l-1-3ZM685 1205v3h1l-1-3Z"/><path fill="#4FA9D5" d="M708 1205v3h1l-1-3Z"/><path fill="#4E6B77" d="M961 1205v3h1l-1-3Z"/><path fill="#EADB68" d="M984 1205v3h1l-1-3Z"/><path fill="#4FA9D5" d="M1008 1205v3h1l-1-3Z"/><path fill="#4E6B77" d="M1133 1205v3h1l-1-3Z"/><path fill="#EADB68" d="M1026 1206v2l2-2h-2Z"/><path fill="#4E6B77" d="M1162 1206v4h1l-1-4Z"/><path fill="#4FA9D5" d="M667 1207v3h1l-1-3ZM1116 1207v3h1l-1-3Z"/><path fill="#EADB68" d="M82 1208v3h1l-1-3ZM589 1208v3h1l-1-3Z"/><path fill="#4E6B77" d="M1026 1208v2h2v-2h-2Z"/><path fill="#EADB68" d="M1189 1208v3h1l-1-3Z"/><path fill="#4E6B77" d="M62 1210v2h2v-2h-2Z"/><path fill="#4FA9D5" d="M64 1212v2h2v-2h-2Z"/><path fill="#EADB68" d="M78 1212v2h3v-2h-3Z"/><path fill="#4FA9D5" d="M93 1212v2h2v-2h-2Z"/><path fill="#4E6B77" d="M114 1212v2h2l-2-2Z"/><path fill="#4FA9D5" d="M142 1212v2l2-2h-2Z"/><path fill="#EADB68" d="M238 1212v2h2v-2h-2Z"/><path fill="#4E6B77" d="M240 1212v2h2v-2h-2Zm15 0v2h2v-2h-2ZM464 1212v2h3v-2h-3Z"/><path fill="#EADB68" d="M786 1212v2h2v-2h-2Z"/><path fill="#4E6B77" d="M788 1212v2h2v-2h-2Z"/><path fill="#4FA9D5" d="M840 1212v2h2l-2-2Z"/><path fill="#4E6B77" d="M1039 1212v2h3v-2h-3Z"/><path fill="#EADB68" d="M1055 1212v2h2v-2h-2Z"/><path fill="#4E6B77" d="M1079 1213v1h6v-2l-6 1Z"/><path fill="#4FA9D5" d="M1142 1212v2h2v-2h-2Z"/><path fill="#4E6B77" d="M98 1214v7h1l-1-7ZM299 1214v7h1l-1-7ZM597 1214v7h1l-1-7ZM798 1214v7h1l-1-7Z"/><path fill="#EADB68" d="M48 1215v3h1l-1-3Z"/><path fill="#4E6B77" d="M118 1215v3h1l-1-3Zm8 0v5h1l-1-5ZM325 1215v5h1l-1-5ZM626 1215v5h1l-1-5ZM824 1215v5h1l-1-5ZM898 1215v5h1l-1-5Z"/><path fill="#EADB68" d="M925 1215v5h1l-1-5Z"/><path fill="#4E6B77" d="M1053 1215v6h1l-1-6Z"/><path fill="#EADB68" d="M1148 1215v5h1l-1-5Z"/><path fill="#4E6B77" d="M147 1216v4h1l-1-4ZM346 1216v4h1l-1-4Z"/><path fill="#EADB68" d="M447 1216v4h1l-1-4Zm21 0v4h1l-1-4Z"/><path fill="#4E6B77" d="M476 1216v3h1l-1-3Zm21 0v3h1l-1-3ZM616 1216v4h1l-1-4Zm31 0v4h1l-1-4ZM816 1216v4h1l-1-4Zm29 0v4h1l-1-4Z"/><path fill="#4FA9D5" d="M1092 1216v4h1l-1-4Z"/><path fill="#4E6B77" d="M1173 1216v4h1l-1-4Z"/><path fill="#EADB68" d="M49 1222v3h1l-1-3Z"/><path fill="#4E6B77" d="M50 1222v3h1l-1-3Z"/><path fill="#4FA9D5" d="M51 1222v3h3v-3h-3Z"/><path fill="#EADB68" d="M54 1222v3h1l-1-3Zm6 1v1l4 1v-3l-4 1Z"/><path fill="#4E6B77" d="M65 1222v3h2v-3h-2Z"/><path fill="#EADB68" d="M77 1222v3h1l-1-3Z"/><path fill="#4E6B77" d="M78 1222v3h3v-3h-3Z"/><path fill="#4FA9D5" d="M81 1222v3h2v-3h-2Z"/><path fill="#EADB68" d="m89 1222 1 3 3-3h-4Z"/><path fill="#4E6B77" d="M93 1222v3h2v-3h-2Z"/><path fill="#4FA9D5" d="M95 1222v3h1l-1-3Z"/><path fill="#EADB68" d="M99 1222v3l2-1v-1l-2-1Z"/><path fill="#4FA9D5" d="M100 1222v3h4v-3h-4Z"/><path fill="#EADB68" d="M104 1222v3h1l-1-3Zm9 0v3l2-1v-1l-2-1Z"/><path fill="#4FA9D5" d="M114 1222v3l3-1v-1l-3-1Z"/><path fill="#4E6B77" d="M128 1222v3h2v-3h-2Z"/><path fill="#4FA9D5" d="M130 1222v3h3v-3h-3Z"/><path fill="#EADB68" d="M133 1222v3h1l1-3h-2Z"/><path fill="#4FA9D5" d="m143 1222 2 3v-3h-2Z"/><path fill="#4E6B77" d="M145 1222v3h1l-1-3Z"/><path fill="#EADB68" d="M163 1222v3h1l-1-3Z"/><path fill="#4E6B77" d="M164 1222v3h1l-1-3Z"/><path fill="#4FA9D5" d="M185 1222v3h1l-1-3Z"/><path fill="#EADB68" d="M207 1222v3h1l-1-3Z"/><path fill="#4FA9D5" d="M208 1222v3h3v-3h-3Z"/><path fill="#EADB68" d="M211 1222v3h1l-1-3Zm24 3 5-1c-2.398-1.77-4.292-2.24-5 1Z"/><path fill="#4FA9D5" d="M237 1222v1h3v1h-2v1h5l-6-3Z"/><path fill="#EADB68" d="M265 1222v3h1l-1-3Z"/><path fill="#4FA9D5" d="M284 1222v3h1l-1-3Z"/><path fill="#EADB68" d="M300 1222v3h1l-1-3ZM302 1222v1l2 2h1l-3-3Zm10 0v3h2v-3h-2Z"/><path fill="#4FA9D5" d="M314 1222v3h2v-3h-2Z"/><path fill="#4E6B77" d="M327 1222v3h2v-3h-2Z"/><path fill="#4FA9D5" d="M329 1222c.662 3.15 2.338 3.15 3 0h-3Z"/><path fill="#EADB68" d="M332 1222v3h2v-3h-2Zm9 0-1 1 3 2-2-3ZM364 1222v3h2v-3h-2Z"/><path fill="#4E6B77" d="M366 1222v3h1l-1-3Z"/><path fill="#EADB68" d="M454 1222v3h1l-1-3Z"/><path fill="#4FA9D5" d="M464 1222v3h1l-1-3Z"/><path fill="#4E6B77" d="M465 1222v3h1l-1-3Z"/><path fill="#4FA9D5" d="M466 1222v3h1l-1-3ZM479 1222l2 3v-3h-2Z"/><path fill="#EADB68" d="M481 1222v3h1l-1-3Zm9 0 1 3h1v-3h-2Z"/><path fill="#4FA9D5" d="M492 1222v3h3v-3h-3Z"/><path fill="#EADB68" d="M495 1222v3h1l-1-3Zm17 0v3h1l-1-3Z"/><path fill="#4E6B77" d="M513 1222v3h1l-1-3Z"/><path fill="#4FA9D5" d="M532 1222v3h1l-1-3Z"/><path fill="#4E6B77" d="M561 1222v3h1l-1-3Z"/><path fill="#EADB68" d="M581 1222v3l2-3h-2ZM584 1222v3h1l-1-3Zm6 0v3h1l-1-3Z"/><path fill="#4FA9D5" d="M591 1222v3h2v-3h-2Z"/><path fill="#4E6B77" d="M593 1222v3h1l-1-3Z"/><path fill="#EADB68" d="M598 1222v3h3v-3h-3Z"/><path fill="#4FA9D5" d="M600 1223v1l3 1v-3l-3 1Z"/><path fill="#EADB68" d="M603 1222v3h1l-1-3Z"/><path fill="#4FA9D5" d="M613 1222v3h2v-3h-2Z"/><path fill="#4E6B77" d="M628 1222v3h2v-3h-2Z"/><path fill="#4FA9D5" d="m630 1222 3 3-1-3h-2Z"/><path fill="#EADB68" d="m632 1222 1 3h1v-3h-2Zm8 0 3 3 1-1-4-2Z"/><path fill="#4FA9D5" d="M643 1222v3c2.006-1.13 2.006-1.87 0-3Z"/><path fill="#4E6B77" d="M645 1222v3h1l-1-3Z"/><path fill="#EADB68" d="M665 1222v3h1l-1-3Z"/><path fill="#4E6B77" d="M666 1222v3h1l-1-3Z"/><path fill="#4FA9D5" d="M685 1222v3h1l-1-3Z"/><path fill="#4E6B77" d="M707 1222v3h1l-1-3Z"/><path fill="#EADB68" d="M725 1222v3h1l-1-3Zm7 3h3l1-3-4 3Zm9-1h3l-1-2-2 2ZM756 1222v3h2v-3h-2Z"/><path fill="#4FA9D5" d="M758 1222v3h3v-3h-3Z"/><path fill="#EADB68" d="M761 1222v3h1l1-3h-2Zm23 0v3h2v-3h-2Z"/><path fill="#4FA9D5" d="M786 1222c.795 3.71 4.204 3.71 5 0h-5Z"/><path fill="#EADB68" d="M799 1222v3h1l-1-3Z"/><path fill="#4FA9D5" d="M800 1225h3c-.662-3.15-2.338-3.15-3 0Z"/><path fill="#EADB68" d="M803 1222v3h1l-1-3Zm8 0v3h2v-3h-2Z"/><path fill="#4E6B77" d="M826 1222v3h2v-3h-2Z"/><path fill="#4FA9D5" d="m828 1222 3 3-1-3h-2Z"/><path fill="#EADB68" d="m830 1222 1 3h1l1-3h-3Z"/><path fill="#4FA9D5" d="m841 1222 1 3h1l1-3h-3Z"/><path fill="#EADB68" d="M899 1222v3h1l-1-3Z"/><path fill="#4E6B77" d="M900 1222v3h2v-3h-2Z"/><path fill="#EADB68" d="m903 1222 1 3h1v-3h-2Z"/><path fill="#4E6B77" d="M915 1222v3h2v-3h-2Z"/><path fill="#EADB68" d="M927 1222v3h1l-1-3Z"/><path fill="#4E6B77" d="M928 1222v3h1l-1-3Z"/><path fill="#4FA9D5" d="M929 1222v3h2v-3h-2Z"/><path fill="#EADB68" d="M939 1222v3h2v-3h-2Z"/><path fill="#4E6B77" d="m941 1222 1 3h1v-3h-2Z"/><path fill="#EADB68" d="M943 1222v3h1l-1-3Zm20 0v3h1l-1-3Z"/><path fill="#4FA9D5" d="M982 1222v3h1l-1-3Z"/><path fill="#4E6B77" d="M1006 1222v3h2v-3h-2Z"/><path fill="#EADB68" d="M1024 1222v3h1l-1-3Zm8 0v3h4l-1-3h-3ZM1041 1222l2 2v-2h-2ZM1054 1222v3h1l-1-3Z"/><path fill="#4E6B77" d="M1055 1222v3h1l-1-3Zm2 0v3h3v-3h-3Z"/><path fill="#4FA9D5" d="M1060 1222v3h4v-3h-4Z"/><path fill="#EADB68" d="m1079 1222 6 3v-3h-6Z"/><path fill="#4E6B77" d="M1085 1222v3h3v-3h-3Z"/><path fill="#EADB68" d="M1114 1222v3h1l-1-3Z"/><path fill="#4E6B77" d="M1115 1222v3h1l-1-3Z"/><path fill="#4FA9D5" d="M1133 1222v3h1l-1-3Z"/><path fill="#EADB68" d="M1150 1222v3h1l-1-3ZM1162 1222v3l2-3h-2Z"/><path fill="#4E6B77" d="M1175 1222v3h2v-3h-2Z"/><path fill="#4FA9D5" d="M1177 1225h3v-3l-3 3Z"/><path fill="#EADB68" d="M1179 1223v1l3 1v-3l-3 1Z"/><path fill="#4FA9D5" d="m1190 1222 1 3h1v-3h-2Z"/><path fill="#4E6B77" d="M1192 1222v3h2v-3h-2Z"/><path fill="#4FA9D5" d="m92 1223-1 2h2l-1-2Z"/><path fill="#EADB68" d="M33 1266v14h1l-1-14Zm1180 3v11h1l-1-11Zm-649 2v1h28l-28-1Zm58 0v1h3l-3-1Zm34 0v1h27l-27-1Z"/><path fill="#4E6B77" d="M563 1272v1h121c-9.789-4.11-26.366-1-37-1h-84Z"/><path fill="#EADB68" d="M489 1273v1h31l-31-1Z"/><path fill="#4FA9D5" d="M520 1273v1h37c-9.798-4.11-26.351-1-37-1Z"/><path fill="#4E6B77" d="M557 1273v1h4l-4-1Zm129 0v1h5l-5-1Z"/><path fill="#4FA9D5" d="M691 1273v1h36c-9.56-4.01-25.613-1-36-1Z"/><path fill="#EADB68" d="M727 1273v1h30l-30-1Z"/><path fill="#4E6B77" d="M24 1274v3h1l-1-3Z"/><path fill="#EADB68" d="M418 1274v1h5l-5-1Z"/><path fill="#4FA9D5" d="M423 1274v1h53l-17-1h-36Z"/><path fill="#4E6B77" d="M476 1274v1h24l-24-1Zm271 0v1h23l-23-1Z"/><path fill="#4FA9D5" d="M770 1274v1h54l-18-1h-36Z"/><path fill="#EADB68" d="M824 1274v1h4l-4-1Zm-502 1v1h42c-10.988-4.61-30.043-1-42-1Z"/><path fill="#4FA9D5" d="M364 1275v1h21l-21-1Z"/><path fill="#4E6B77" d="M385 1275v1h17l-17-1Zm459 0v1h19l-19-1Z"/><path fill="#4FA9D5" d="M863 1275v1h21l-21-1Z"/><path fill="#EADB68" d="M884 1275v1h40c-10.51-4.41-28.57-1-40-1Zm-657 1v1h54l-18-1h-36Z"/><path fill="#4FA9D5" d="M281 1276v1h8l-8-1Z"/><path fill="#4E6B77" d="M289 1276v1h19l-19-1Zm650 0v1h19l-19-1Z"/><path fill="#4FA9D5" d="M958 1276v1h8l-8-1Z"/><path fill="#EADB68" d="M966 1276v1h54l-18-1h-36Zm-822 1v1h47c-12.177-5.11-33.735-1-47-1Z"/><path fill="#4FA9D5" d="M191 1277v1h5l-5-1Z"/><path fill="#4E6B77" d="M196 1277v1h26l-26-1Zm827 0v1h27l-27-1Z"/><path fill="#4FA9D5" d="M1050 1277v1h6l-6-1Z"/><path fill="#EADB68" d="M1056 1277v1h47c-12.18-5.11-33.73-1-47-1Zm-985 1v1h45c-11.701-4.91-32.258-1-45-1Z"/><path fill="#4FA9D5" d="M116 1278v1h5l-5-1Z"/><path fill="#4E6B77" d="M121 1278v1h23l-23-1Zm982 0v1h23l-23-1Z"/><path fill="#4FA9D5" d="M1126 1278v1h6l-6-1Z"/><path fill="#EADB68" d="M1132 1278v1h44c-11.46-4.81-31.52-1-44-1ZM37 1279v1h9l-9-1Z"/><path fill="#4FA9D5" d="M46 1279v1h3l-3-1Z"/><path fill="#4E6B77" d="M49 1279v1h55l-18-1H49Zm1095 0v1h54l-18-1h-36Z"/><path fill="#4FA9D5" d="M1198 1279v1h3l-3-1Z"/><path fill="#EADB68" d="M1201 1279v1h9l-9-1Z"/><path fill="#4E6B77" d="M33 1280v1h12l-12-1Zm1169 0v1h12l-12-1ZM502 1284v1h26l-26-1Z"/><path fill="#4FA9D5" d="M528 1284v1h24l-24-1Z"/><path fill="#EADB68" d="M552 1284v1h53l-17-1h-36Zm90 0v1h52l-17-1h-35Z"/><path fill="#4FA9D5" d="M694 1284v1h26l-26-1Z"/><path fill="#4E6B77" d="M720 1284v1h24l-24-1ZM393 1285v1h25l-25-1Z"/><path fill="#4FA9D5" d="M418 1285v1h34l-34-1Z"/><path fill="#EADB68" d="M452 1285v1h8l-8-1Z"/><path fill="#4FA9D5" d="M460 1285v1h5l-5-1Z"/><path fill="#EADB68" d="M465 1285v1h11l-11-1Z"/><path fill="#4FA9D5" d="M476 1285v1h8l-8-1Z"/><path fill="#EADB68" d="M484 1285v1h3l-3-1ZM489 1285v1h3l-3-1Zm265 0v1h6l-6-1Z"/><path fill="#4FA9D5" d="M760 1285v1h4l-4-1Z"/><path fill="#EADB68" d="M764 1285v1h14l-14-1ZM780 1285v1h16l-16-1Z"/><path fill="#4FA9D5" d="M796 1285v1h32l-32-1Z"/><path fill="#4E6B77" d="M828 1285v1h28l-28-1ZM276 1286v1h41c-10.75-4.51-29.304-1-41-1Z"/><path fill="#4FA9D5" d="M317 1286v1h55l-18-1h-37Z"/><path fill="#EADB68" d="M372 1286v1h3l-3-1Zm500 0v1h3l-3-1Z"/><path fill="#4FA9D5" d="M875 1286v1h54l-18-1h-36Z"/><path fill="#4E6B77" d="M929 1286v1h43c-11.23-4.71-30.78-1-43-1ZM32 1287v1h3l-3-1Zm108 0v1h108l-33-1h-75Z"/><path fill="#EADB68" d="M250 1287v1h38c-10.036-4.21-27.089-1-38-1Zm714 0v1h33l-33-1Z"/><path fill="#4E6B77" d="M999 1287v1h107l-33-1h-74Zm213 0v1h3l-3-1Z"/><path fill="#EADB68" d="M33 1288v1h5l-5-1Z"/><path fill="#4FA9D5" d="M38 1288v1h4l-4-1Z"/><path fill="#4E6B77" d="M42 1288v1h41c-10.75-4.51-29.304-1-41-1Z"/><path fill="#4FA9D5" d="M83 1288v1h12l-12-1Z"/><path fill="#EADB68" d="M95 1288v1h5l-5-1ZM102 1288v1h84l-26-1h-58Zm86 0v1h3l-3-1Zm874 0v1h83l-26-1h-57Z"/><path fill="#4FA9D5" d="M1145 1288v1h3l-3-1Z"/><path fill="#EADB68" d="M1148 1288v1h4l-4-1Z"/><path fill="#4FA9D5" d="M1152 1288v1h12l-12-1Z"/><path fill="#4E6B77" d="M1164 1288v1h41c-10.75-4.51-29.3-1-41-1Z"/><path fill="#4FA9D5" d="M1205 1288v1h5l-5-1Z"/><path fill="#EADB68" d="M1210 1288v1h4l-4-1Zm-1167 1v1h39c-10.274-4.31-27.828-1-39-1Zm1122 0v1h39c-10.27-4.31-27.83-1-39-1Z"/></svg>